<svg width="1052" height="769" viewBox="0 0 1052 769" fill="none" xmlns="http://www.w3.org/2000/svg">
<g clip-path="url(#clip0_46_766)">
<path d="M709.083 575.564L740.739 515.678" stroke="black" stroke-width="0.5094" stroke-linecap="round" stroke-linejoin="round"/>
<path d="M709.083 575.564L677.241 515.678" stroke="black" stroke-width="0.5094" stroke-linecap="round" stroke-linejoin="round"/>
<path d="M267.714 575.389L299.463 515.678" stroke="black" stroke-width="0.5094" stroke-linecap="round" stroke-linejoin="round"/>
<path d="M267.714 575.389L235.965 515.678" stroke="black" stroke-width="0.5094" stroke-linecap="round" stroke-linejoin="round"/>
<path d="M740.739 515.678L839.812 328.253" stroke="black" stroke-width="2.83" stroke-linecap="round" stroke-linejoin="round"/>
<path d="M510.622 202.313L488.352 160.429" stroke="black" stroke-width="0.5094" stroke-linecap="round" stroke-linejoin="round"/>
<path d="M510.622 202.313L502.588 187.204" stroke="black" stroke-width="1.698" stroke-linecap="round" stroke-linejoin="round"/>
<path d="M677.241 515.678L510.622 202.313" stroke="black" stroke-width="2.83" stroke-linecap="round" stroke-linejoin="round"/>
<path d="M466.081 202.313L488.352 160.429" stroke="black" stroke-width="0.5094" stroke-linecap="round" stroke-linejoin="round"/>
<path d="M466.081 202.313L474.115 187.204" stroke="black" stroke-width="1.698" stroke-linecap="round" stroke-linejoin="round"/>
<path d="M299.463 515.678L466.082 202.313" stroke="black" stroke-width="2.83" stroke-linecap="round" stroke-linejoin="round"/>
<path d="M466.081 202.313H510.622" stroke="black" stroke-width="2.83" stroke-linecap="round" stroke-linejoin="round"/>
<path d="M677.241 515.678H740.739" stroke="black" stroke-width="2.83" stroke-linecap="round" stroke-linejoin="round"/>
<path d="M235.964 515.678L110.289 279.318" stroke="black" stroke-width="2.83" stroke-linecap="round" stroke-linejoin="round"/>
<path d="M235.965 515.678H299.463" stroke="black" stroke-width="2.83" stroke-linecap="round" stroke-linejoin="round"/>
<path d="M0 760.783H1051.17" stroke="black" stroke-width="0.5094" stroke-linejoin="round" stroke-dasharray="25.39 3.33 3.33 3.33"/>
<path d="M823.562 358.996H770.555" stroke="black" stroke-width="0.5094" stroke-linejoin="round" stroke-dasharray="22.15 2.9 2.9 2.9"/>
<path d="M708.99 358.996H823.562" stroke="black" stroke-width="0.5094" stroke-linejoin="round" stroke-dasharray="22.12 2.9 2.9 2.9"/>
<path d="M488.352 358.996H677.156" stroke="black" stroke-width="0.5094" stroke-linejoin="round" stroke-dasharray="23.7 3.11 3.11 3.11"/>
<path d="M134.839 358.996H454.946" stroke="black" stroke-width="0.5094" stroke-linejoin="round" stroke-dasharray="23.64 3.1 3.1 3.1"/>
<path fill-rule="evenodd" clip-rule="evenodd" d="M118.021 156.336L127.809 189.398L135.121 220.983L135.637 225.79L136.202 253.392L133.212 281.243L126.668 309.345L126.52 309.843L235.965 515.678H299.463L466.081 202.313L474.115 187.204L478.768 182.186L485.294 180.129L485.914 180.114H490.79L497.405 181.866L502.284 186.663L502.588 187.204L510.622 202.313L677.241 515.678H740.739L839.812 328.253L849.774 290.43L852.589 276.178L858.512 235.19L858.757 222.931L856.778 203.545L852.148 178.351L846.061 152.204L842.888 134.167L843.094 119.315L846.437 100.843L852.514 75.8487L855.235 53.5477L854.791 45.97L850.075 21.5494L842.888 -0.000362398H111.05L103.887 27.8893L100.281 55.5542L100.231 82.9945L100.512 86.8667L103.627 106.093L110.607 130.98L118.021 156.336Z" fill="#E1FF34" fill-opacity="0.2"/>
<path fill-rule="evenodd" clip-rule="evenodd" d="M299.462 515.678L292.491 524.493L283.123 530.702L272.288 533.688L268.357 533.907H267.067L255.97 532.134L245.976 526.996L238.077 519.003L235.964 515.678L110.289 279.318L94.6847 306.212L82.6122 333.578L74.072 361.415L69.3456 387.353L68.8368 404.394L71.341 425.433L76.5807 453.048L80.0753 483.414L79.6884 493.616L76.371 512.078L69.2165 534.229L57.9725 562.969L48.496 593.443L47.0751 601.474L43.9268 636.782L44.3238 672.451L48.2663 708.479L55.7541 744.867L62.3446 768.145H845.972L835.123 732.769L830.265 711.072L824.119 670.282L823.562 652.298L825.501 636.177L830.955 615.407L838.592 586.04L839.812 575.564L839.721 548.081L836.712 519.039L830.534 483.88L823.562 464.287L812.74 446.269L798.711 429.804L790.275 421.965L740.739 515.678L733.768 524.493L724.4 530.702L713.565 533.688L709.634 533.907H708.344L697.247 532.134L687.253 526.996L679.353 519.003L677.241 515.678L510.622 202.313H466.081L299.462 515.678Z" fill="#034684" fill-opacity="0.2"/>
<path d="M741.137 514.926L740.739 515.678" stroke="black" stroke-width="0.5094" stroke-linecap="round" stroke-linejoin="round"/>
<path d="M562.045 160.429V155.975" stroke="black" stroke-width="0.5094" stroke-linecap="round" stroke-linejoin="round"/>
<path d="M708.344 533.907H709.634" stroke="black" stroke-width="1.698" stroke-linecap="round" stroke-linejoin="round"/>
<path d="M677.241 515.678L678.533 517.805L679.97 519.838L681.546 521.765L683.252 523.578L685.08 525.267L687.022 526.825L689.068 528.243L691.207 529.515L693.431 530.635L695.726 531.597L698.084 532.396L700.491 533.029L702.937 533.493L705.409 533.785L707.895 533.904L708.344 533.907" stroke="black" stroke-width="1.698" stroke-linecap="round" stroke-linejoin="round"/>
<path d="M709.634 533.907L712.122 533.819L714.598 533.558L717.05 533.125L719.466 532.522L721.833 531.752L724.141 530.819L726.379 529.727L728.535 528.481L730.598 527.088L732.56 525.555L734.41 523.888L736.139 522.097L737.739 520.189L739.201 518.174L740.52 516.062L740.739 515.678" stroke="black" stroke-width="1.698" stroke-linecap="round" stroke-linejoin="round"/>
<path d="M267.067 533.907H268.357" stroke="black" stroke-width="1.698" stroke-linecap="round" stroke-linejoin="round"/>
<path d="M235.965 515.678L237.257 517.805L238.694 519.838L240.269 521.765L241.976 523.578L243.804 525.267L245.746 526.825L247.791 528.243L249.931 529.515L252.154 530.635L254.45 531.597L256.807 532.396L259.215 533.029L261.66 533.493L264.133 533.785L266.619 533.904L267.068 533.907" stroke="black" stroke-width="1.698" stroke-linecap="round" stroke-linejoin="round"/>
<path d="M268.357 533.907L270.846 533.819L273.322 533.558L275.773 533.125L278.189 532.522L280.557 531.752L282.865 530.819L285.102 529.727L287.258 528.481L289.322 527.088L291.283 525.555L293.133 523.888L294.862 522.097L296.462 520.189L297.925 518.174L299.244 516.062L299.462 515.678" stroke="black" stroke-width="1.698" stroke-linecap="round" stroke-linejoin="round"/>
<path d="M267.714 575.389L267.476 464.815" stroke="black" stroke-width="0.5094" stroke-linejoin="round" stroke-dasharray="21.35 2.8 2.8 2.8"/>
<path d="M709.083 575.564L708.99 467.686" stroke="black" stroke-width="0.5094" stroke-linejoin="round" stroke-dasharray="20.83 2.73 2.73 2.73"/>
<path d="M485.913 180.115H490.79" stroke="black" stroke-width="1.698" stroke-linecap="round" stroke-linejoin="round"/>
<path d="M485.913 180.115L484.981 180.147L484.054 180.245L483.135 180.407L482.23 180.632L481.343 180.92L480.478 181.27L479.64 181.679L478.832 182.145L478.059 182.667L477.324 183.241L476.631 183.865L475.983 184.536L475.384 185.25L474.836 186.005L474.115 187.204" stroke="black" stroke-width="1.698" stroke-linecap="round" stroke-linejoin="round"/>
<path d="M502.588 187.204L502.122 186.396L501.6 185.623L501.026 184.888L500.402 184.195L499.731 183.547L499.017 182.947L498.262 182.399L497.471 181.905L496.648 181.467L495.796 181.088L494.919 180.769L494.023 180.511L493.11 180.318L492.187 180.188L490.79 180.115" stroke="black" stroke-width="1.698" stroke-linecap="round" stroke-linejoin="round"/>
<path d="M525.894 217.903H530.348" stroke="black" stroke-width="0.5094" stroke-linecap="round" stroke-linejoin="round"/>
<path d="M677.241 595.459H672.787" stroke="black" stroke-width="0.5094" stroke-linecap="round" stroke-linejoin="round"/>
<path d="M660.721 545.621H656.267" stroke="black" stroke-width="0.5094" stroke-linecap="round" stroke-linejoin="round"/>
<path d="M267.437 446.782L267.076 279.318" stroke="black" stroke-width="0.5094" stroke-linejoin="round" stroke-dasharray="25.48 3.34 3.34 3.34"/>
<path d="M510.622 138.621L499.486 140.087" stroke="black" stroke-width="0.5094" stroke-linecap="round" stroke-linejoin="round"/>
<path d="M499.486 140.087L500.6 138.621" stroke="black" stroke-width="0.5094" stroke-linecap="round" stroke-linejoin="round"/>
<path d="M500.6 138.621L499.486 137.155" stroke="black" stroke-width="0.5094" stroke-linecap="round" stroke-linejoin="round"/>
<path d="M499.486 137.155L510.622 138.621" stroke="black" stroke-width="0.5094" stroke-linecap="round" stroke-linejoin="round"/>
<path fill-rule="evenodd" clip-rule="evenodd" d="M499.486 140.087L510.622 138.621L499.486 137.155L500.6 138.621L499.486 140.087Z" fill="black"/>
<path d="M466.081 138.621L477.216 137.155" stroke="black" stroke-width="0.5094" stroke-linecap="round" stroke-linejoin="round"/>
<path d="M477.216 137.155L476.103 138.621" stroke="black" stroke-width="0.5094" stroke-linecap="round" stroke-linejoin="round"/>
<path d="M476.103 138.621L477.216 140.087" stroke="black" stroke-width="0.5094" stroke-linecap="round" stroke-linejoin="round"/>
<path d="M477.216 140.087L466.081 138.621" stroke="black" stroke-width="0.5094" stroke-linecap="round" stroke-linejoin="round"/>
<path fill-rule="evenodd" clip-rule="evenodd" d="M476.103 138.621L477.216 137.155L466.081 138.621L477.216 140.087L476.103 138.621Z" fill="black"/>
<path d="M510.622 138.621H466.081" stroke="black" stroke-width="0.5094" stroke-linecap="round" stroke-linejoin="round"/>
<path d="M510.622 202.313V134.167" stroke="black" stroke-width="0.5094" stroke-linecap="round" stroke-linejoin="round"/>
<path d="M466.081 202.313V134.167" stroke="black" stroke-width="0.5094" stroke-linecap="round" stroke-linejoin="round"/>
<path d="M382.771 66.8232L393.907 65.3573" stroke="black" stroke-width="0.5094" stroke-linecap="round" stroke-linejoin="round"/>
<path d="M393.906 65.3573L392.793 66.8232" stroke="black" stroke-width="0.5094" stroke-linecap="round" stroke-linejoin="round"/>
<path d="M392.793 66.8231L393.906 68.2891" stroke="black" stroke-width="0.5094" stroke-linecap="round" stroke-linejoin="round"/>
<path d="M393.907 68.2891L382.771 66.8231" stroke="black" stroke-width="0.5094" stroke-linecap="round" stroke-linejoin="round"/>
<path fill-rule="evenodd" clip-rule="evenodd" d="M382.771 66.8231L393.907 65.3571L392.793 66.8231L393.907 68.2891L382.771 66.8231Z" fill="black"/>
<path d="M823.561 66.8231L812.426 68.2891" stroke="black" stroke-width="0.5094" stroke-linecap="round" stroke-linejoin="round"/>
<path d="M812.426 68.2891L813.539 66.8231" stroke="black" stroke-width="0.5094" stroke-linecap="round" stroke-linejoin="round"/>
<path d="M813.539 66.8232L812.426 65.3573" stroke="black" stroke-width="0.5094" stroke-linecap="round" stroke-linejoin="round"/>
<path d="M812.426 65.3573L823.561 66.8232" stroke="black" stroke-width="0.5094" stroke-linecap="round" stroke-linejoin="round"/>
<path fill-rule="evenodd" clip-rule="evenodd" d="M812.426 68.2891L823.561 66.8231L812.426 65.3571L813.539 66.8231L812.426 68.2891Z" fill="black"/>
<path d="M382.771 66.8232H823.561" stroke="black" stroke-width="0.5094" stroke-linecap="round" stroke-linejoin="round"/>
<path d="M382.771 358.996V62.3692" stroke="black" stroke-width="0.5094" stroke-linecap="round" stroke-linejoin="round"/>
<path d="M823.562 358.996V62.3692" stroke="black" stroke-width="0.5094" stroke-linecap="round" stroke-linejoin="round"/>
<path d="M382.771 104.344L393.907 102.878" stroke="black" stroke-width="0.5094" stroke-linecap="round" stroke-linejoin="round"/>
<path d="M393.906 102.878L392.793 104.344" stroke="black" stroke-width="0.5094" stroke-linecap="round" stroke-linejoin="round"/>
<path d="M392.793 104.344L393.906 105.81" stroke="black" stroke-width="0.5094" stroke-linecap="round" stroke-linejoin="round"/>
<path d="M393.907 105.81L382.771 104.344" stroke="black" stroke-width="0.5094" stroke-linecap="round" stroke-linejoin="round"/>
<path fill-rule="evenodd" clip-rule="evenodd" d="M382.771 104.344L393.907 102.878L392.793 104.344L393.907 105.81L382.771 104.344Z" fill="black"/>
<path d="M593.931 104.344L582.796 105.81" stroke="black" stroke-width="0.5094" stroke-linecap="round" stroke-linejoin="round"/>
<path d="M582.796 105.81L583.909 104.344" stroke="black" stroke-width="0.5094" stroke-linecap="round" stroke-linejoin="round"/>
<path d="M583.909 104.344L582.796 102.878" stroke="black" stroke-width="0.5094" stroke-linecap="round" stroke-linejoin="round"/>
<path d="M582.796 102.878L593.931 104.344" stroke="black" stroke-width="0.5094" stroke-linecap="round" stroke-linejoin="round"/>
<path fill-rule="evenodd" clip-rule="evenodd" d="M593.931 104.344L582.796 102.878L583.909 104.344L582.796 105.81L593.931 104.344Z" fill="black"/>
<path d="M382.771 104.344H593.931" stroke="black" stroke-width="0.5094" stroke-linecap="round" stroke-linejoin="round"/>
<path d="M382.771 358.996V99.8896" stroke="black" stroke-width="0.5094" stroke-linecap="round" stroke-linejoin="round"/>
<path d="M593.932 358.996V99.8896" stroke="black" stroke-width="0.5094" stroke-linecap="round" stroke-linejoin="round"/>
<path d="M677.241 595.459L688.376 593.993" stroke="black" stroke-width="0.5094" stroke-linecap="round" stroke-linejoin="round"/>
<path d="M688.376 593.993L687.263 595.459" stroke="black" stroke-width="0.5094" stroke-linecap="round" stroke-linejoin="round"/>
<path d="M687.263 595.459L688.376 596.925" stroke="black" stroke-width="0.5094" stroke-linecap="round" stroke-linejoin="round"/>
<path d="M688.376 596.925L677.241 595.459" stroke="black" stroke-width="0.5094" stroke-linecap="round" stroke-linejoin="round"/>
<path fill-rule="evenodd" clip-rule="evenodd" d="M687.263 595.459L688.376 593.993L677.241 595.459L688.376 596.925L687.263 595.459Z" fill="black"/>
<path d="M740.739 595.459L729.604 596.925" stroke="black" stroke-width="0.5094" stroke-linecap="round" stroke-linejoin="round"/>
<path d="M729.604 596.925L730.717 595.459" stroke="black" stroke-width="0.5094" stroke-linecap="round" stroke-linejoin="round"/>
<path d="M730.717 595.459L729.604 593.993" stroke="black" stroke-width="0.5094" stroke-linecap="round" stroke-linejoin="round"/>
<path d="M729.604 593.993L740.739 595.459" stroke="black" stroke-width="0.5094" stroke-linecap="round" stroke-linejoin="round"/>
<path fill-rule="evenodd" clip-rule="evenodd" d="M729.604 596.925L740.739 595.459L729.604 593.993L730.717 595.459L729.604 596.925Z" fill="black"/>
<path d="M677.241 595.459H740.739" stroke="black" stroke-width="0.5094" stroke-linecap="round" stroke-linejoin="round"/>
<path d="M677.241 515.678V599.914" stroke="black" stroke-width="0.5094" stroke-linecap="round" stroke-linejoin="round"/>
<path d="M740.739 515.678V599.914" stroke="black" stroke-width="0.5094" stroke-linecap="round" stroke-linejoin="round"/>
<path d="M882.891 515.678L884.357 526.813" stroke="black" stroke-width="0.5094" stroke-linecap="round" stroke-linejoin="round"/>
<path d="M884.357 526.813L882.891 525.699" stroke="black" stroke-width="0.5094" stroke-linecap="round" stroke-linejoin="round"/>
<path d="M882.89 525.699L881.424 526.813" stroke="black" stroke-width="0.5094" stroke-linecap="round" stroke-linejoin="round"/>
<path d="M881.424 526.813L882.89 515.678" stroke="black" stroke-width="0.5094" stroke-linecap="round" stroke-linejoin="round"/>
<path fill-rule="evenodd" clip-rule="evenodd" d="M884.356 526.813L882.89 515.678L881.424 526.813L882.89 525.699L884.356 526.813Z" fill="black"/>
<path d="M882.891 515.678V760.783" stroke="black" stroke-width="0.5094" stroke-linecap="round" stroke-linejoin="round"/>
<path d="M740.739 515.678H887.345" stroke="black" stroke-width="0.5094" stroke-linecap="round" stroke-linejoin="round"/>
<path d="M1046 202.313L1047.47 213.449" stroke="black" stroke-width="0.5094" stroke-linecap="round" stroke-linejoin="round"/>
<path d="M1047.47 213.449L1046 212.335" stroke="black" stroke-width="0.5094" stroke-linecap="round" stroke-linejoin="round"/>
<path d="M1046 212.335L1044.54 213.449" stroke="black" stroke-width="0.5094" stroke-linecap="round" stroke-linejoin="round"/>
<path d="M1044.54 213.449L1046 202.313" stroke="black" stroke-width="0.5094" stroke-linecap="round" stroke-linejoin="round"/>
<path fill-rule="evenodd" clip-rule="evenodd" d="M1047.47 213.449L1046 202.313L1044.54 213.449L1046 212.335L1047.47 213.449Z" fill="black"/>
<path d="M1046 202.313V760.783" stroke="black" stroke-width="0.5094" stroke-linecap="round" stroke-linejoin="round"/>
<path d="M510.622 202.313H1050.46" stroke="black" stroke-width="0.5094" stroke-linecap="round" stroke-linejoin="round"/>
<path d="M965.334 358.996L966.8 370.131" stroke="black" stroke-width="0.5094" stroke-linecap="round" stroke-linejoin="round"/>
<path d="M966.8 370.131L965.334 369.017" stroke="black" stroke-width="0.5094" stroke-linecap="round" stroke-linejoin="round"/>
<path d="M965.334 369.017L963.868 370.131" stroke="black" stroke-width="0.5094" stroke-linecap="round" stroke-linejoin="round"/>
<path d="M963.868 370.131L965.334 358.996" stroke="black" stroke-width="0.5094" stroke-linecap="round" stroke-linejoin="round"/>
<path fill-rule="evenodd" clip-rule="evenodd" d="M966.8 370.131L965.334 358.996L963.868 370.131L965.334 369.017L966.8 370.131Z" fill="black"/>
<path d="M965.334 358.996V760.783" stroke="black" stroke-width="0.5094" stroke-linecap="round" stroke-linejoin="round"/>
<path d="M823.562 358.996H969.788" stroke="black" stroke-width="0.5094" stroke-linecap="round" stroke-linejoin="round"/>
<path d="M651.492 358.996L650.026 347.86" stroke="black" stroke-width="0.5094" stroke-linecap="round" stroke-linejoin="round"/>
<path d="M650.026 347.86L651.492 348.974" stroke="black" stroke-width="0.5094" stroke-linecap="round" stroke-linejoin="round"/>
<path d="M651.492 348.974L652.958 347.86" stroke="black" stroke-width="0.5094" stroke-linecap="round" stroke-linejoin="round"/>
<path d="M652.958 347.86L651.492 358.996" stroke="black" stroke-width="0.5094" stroke-linecap="round" stroke-linejoin="round"/>
<path fill-rule="evenodd" clip-rule="evenodd" d="M651.492 358.996L652.958 347.86L651.492 348.974L650.026 347.86L651.492 358.996Z" fill="black"/>
<path d="M651.492 202.313L652.958 213.449" stroke="black" stroke-width="0.5094" stroke-linecap="round" stroke-linejoin="round"/>
<path d="M652.958 213.449L651.492 212.335" stroke="black" stroke-width="0.5094" stroke-linecap="round" stroke-linejoin="round"/>
<path d="M651.492 212.335L650.026 213.449" stroke="black" stroke-width="0.5094" stroke-linecap="round" stroke-linejoin="round"/>
<path d="M650.026 213.449L651.492 202.313" stroke="black" stroke-width="0.5094" stroke-linecap="round" stroke-linejoin="round"/>
<path fill-rule="evenodd" clip-rule="evenodd" d="M652.958 213.449L651.492 202.313L650.026 213.449L651.492 212.335L652.958 213.449Z" fill="black"/>
<path d="M651.492 358.996V202.313" stroke="black" stroke-width="0.5094" stroke-linecap="round" stroke-linejoin="round"/>
<path d="M593.932 358.996H655.947" stroke="black" stroke-width="0.5094" stroke-linecap="round" stroke-linejoin="round"/>
<path d="M510.622 202.313H655.946" stroke="black" stroke-width="0.5094" stroke-linecap="round" stroke-linejoin="round"/>
<path d="M708.989 515.678L707.523 504.542" stroke="black" stroke-width="0.5094" stroke-linecap="round" stroke-linejoin="round"/>
<path d="M707.523 504.543L708.989 505.656" stroke="black" stroke-width="0.5094" stroke-linecap="round" stroke-linejoin="round"/>
<path d="M708.99 505.656L710.456 504.543" stroke="black" stroke-width="0.5094" stroke-linecap="round" stroke-linejoin="round"/>
<path d="M710.456 504.542L708.99 515.678" stroke="black" stroke-width="0.5094" stroke-linecap="round" stroke-linejoin="round"/>
<path fill-rule="evenodd" clip-rule="evenodd" d="M708.989 515.678L710.455 504.542L708.989 505.656L707.523 504.542L708.989 515.678Z" fill="black"/>
<path d="M708.99 202.313L710.456 213.449" stroke="black" stroke-width="0.5094" stroke-linecap="round" stroke-linejoin="round"/>
<path d="M710.456 213.449L708.99 212.335" stroke="black" stroke-width="0.5094" stroke-linecap="round" stroke-linejoin="round"/>
<path d="M708.989 212.335L707.523 213.449" stroke="black" stroke-width="0.5094" stroke-linecap="round" stroke-linejoin="round"/>
<path d="M707.523 213.449L708.989 202.313" stroke="black" stroke-width="0.5094" stroke-linecap="round" stroke-linejoin="round"/>
<path fill-rule="evenodd" clip-rule="evenodd" d="M710.455 213.449L708.989 202.313L707.523 213.449L708.989 212.335L710.455 213.449Z" fill="black"/>
<path d="M708.99 515.678V202.313" stroke="black" stroke-width="0.5094" stroke-linecap="round" stroke-linejoin="round"/>
<path d="M488.352 202.313H713.444" stroke="black" stroke-width="0.5094" stroke-linecap="round" stroke-linejoin="round"/>
<path d="M562.044 202.313L560.578 191.178" stroke="black" stroke-width="0.5094" stroke-linecap="round" stroke-linejoin="round"/>
<path d="M560.578 191.178L562.044 192.292" stroke="black" stroke-width="0.5094" stroke-linecap="round" stroke-linejoin="round"/>
<path d="M562.045 192.292L563.511 191.178" stroke="black" stroke-width="0.5094" stroke-linecap="round" stroke-linejoin="round"/>
<path d="M563.511 191.178L562.045 202.313" stroke="black" stroke-width="0.5094" stroke-linecap="round" stroke-linejoin="round"/>
<path fill-rule="evenodd" clip-rule="evenodd" d="M562.044 202.313L563.51 191.178L562.044 192.292L560.578 191.178L562.044 202.313Z" fill="black"/>
<path d="M562.045 160.429L563.511 171.564" stroke="black" stroke-width="0.5094" stroke-linecap="round" stroke-linejoin="round"/>
<path d="M563.511 171.564L562.045 170.45" stroke="black" stroke-width="0.5094" stroke-linecap="round" stroke-linejoin="round"/>
<path d="M562.044 170.45L560.578 171.564" stroke="black" stroke-width="0.5094" stroke-linecap="round" stroke-linejoin="round"/>
<path d="M560.578 171.564L562.044 160.429" stroke="black" stroke-width="0.5094" stroke-linecap="round" stroke-linejoin="round"/>
<path fill-rule="evenodd" clip-rule="evenodd" d="M563.51 171.564L562.044 160.429L560.578 171.564L562.044 170.45L563.51 171.564Z" fill="black"/>
<path d="M562.045 202.313V160.429" stroke="black" stroke-width="0.5094" stroke-linecap="round" stroke-linejoin="round"/>
<path d="M488.352 202.313H566.499" stroke="black" stroke-width="0.5094" stroke-linecap="round" stroke-linejoin="round"/>
<path d="M488.352 160.429H566.499" stroke="black" stroke-width="0.5094" stroke-linecap="round" stroke-linejoin="round"/>
<path d="M562.045 180.115V189.023" stroke="black" stroke-width="0.5094" stroke-linecap="round" stroke-linejoin="round"/>
<path d="M488.352 575.564L486.886 564.429" stroke="black" stroke-width="0.5094" stroke-linecap="round" stroke-linejoin="round"/>
<path d="M486.886 564.428L488.352 565.542" stroke="black" stroke-width="0.5094" stroke-linecap="round" stroke-linejoin="round"/>
<path d="M488.352 565.542L489.818 564.428" stroke="black" stroke-width="0.5094" stroke-linecap="round" stroke-linejoin="round"/>
<path d="M489.818 564.429L488.352 575.564" stroke="black" stroke-width="0.5094" stroke-linecap="round" stroke-linejoin="round"/>
<path fill-rule="evenodd" clip-rule="evenodd" d="M488.352 575.564L489.818 564.429L488.352 565.542L486.886 564.429L488.352 575.564Z" fill="black"/>
<path d="M488.352 160.429L489.818 171.564" stroke="black" stroke-width="0.5094" stroke-linecap="round" stroke-linejoin="round"/>
<path d="M489.818 171.564L488.352 170.45" stroke="black" stroke-width="0.5094" stroke-linecap="round" stroke-linejoin="round"/>
<path d="M488.352 170.45L486.886 171.564" stroke="black" stroke-width="0.5094" stroke-linecap="round" stroke-linejoin="round"/>
<path d="M486.886 171.564L488.352 160.429" stroke="black" stroke-width="0.5094" stroke-linecap="round" stroke-linejoin="round"/>
<path fill-rule="evenodd" clip-rule="evenodd" d="M489.818 171.564L488.352 160.429L486.886 171.564L488.352 170.45L489.818 171.564Z" fill="black"/>
<path d="M488.352 575.564V160.429" stroke="black" stroke-width="0.5094" stroke-linecap="round" stroke-linejoin="round"/>
<path d="M709.083 575.564H483.897" stroke="black" stroke-width="0.5094" stroke-linecap="round" stroke-linejoin="round"/>
<path d="M660.721 575.564L659.255 564.429" stroke="black" stroke-width="0.5094" stroke-linecap="round" stroke-linejoin="round"/>
<path d="M659.255 564.428L660.721 565.542" stroke="black" stroke-width="0.5094" stroke-linecap="round" stroke-linejoin="round"/>
<path d="M660.721 565.542L662.187 564.428" stroke="black" stroke-width="0.5094" stroke-linecap="round" stroke-linejoin="round"/>
<path d="M662.187 564.429L660.721 575.564" stroke="black" stroke-width="0.5094" stroke-linecap="round" stroke-linejoin="round"/>
<path fill-rule="evenodd" clip-rule="evenodd" d="M660.721 575.564L662.187 564.429L660.721 565.542L659.255 564.429L660.721 575.564Z" fill="black"/>
<path d="M660.721 515.678L662.187 526.813" stroke="black" stroke-width="0.5094" stroke-linecap="round" stroke-linejoin="round"/>
<path d="M662.187 526.813L660.721 525.699" stroke="black" stroke-width="0.5094" stroke-linecap="round" stroke-linejoin="round"/>
<path d="M660.721 525.699L659.255 526.813" stroke="black" stroke-width="0.5094" stroke-linecap="round" stroke-linejoin="round"/>
<path d="M659.255 526.813L660.721 515.678" stroke="black" stroke-width="0.5094" stroke-linecap="round" stroke-linejoin="round"/>
<path fill-rule="evenodd" clip-rule="evenodd" d="M662.187 526.813L660.721 515.678L659.255 526.813L660.721 525.699L662.187 526.813Z" fill="black"/>
<path d="M660.721 575.564V515.678" stroke="black" stroke-width="0.5094" stroke-linecap="round" stroke-linejoin="round"/>
<path d="M709.083 575.564H656.267" stroke="black" stroke-width="0.5094" stroke-linecap="round" stroke-linejoin="round"/>
<path d="M708.99 515.678H656.267" stroke="black" stroke-width="0.5094" stroke-linecap="round" stroke-linejoin="round"/>
<path d="M476.206 184.295L485.303 190.882" stroke="black" stroke-width="0.5094" stroke-linecap="round" stroke-linejoin="round"/>
<path d="M485.303 190.882L483.486 191.182" stroke="black" stroke-width="0.5094" stroke-linecap="round" stroke-linejoin="round"/>
<path d="M483.487 191.182L483.288 193.012" stroke="black" stroke-width="0.5094" stroke-linecap="round" stroke-linejoin="round"/>
<path d="M483.288 193.012L476.206 184.295" stroke="black" stroke-width="0.5094" stroke-linecap="round" stroke-linejoin="round"/>
<path fill-rule="evenodd" clip-rule="evenodd" d="M485.303 190.882L476.206 184.295L483.288 193.012L483.487 191.182L485.303 190.882Z" fill="black"/>
<path d="M485.913 193.477L476.206 184.295" stroke="black" stroke-width="0.5094" stroke-linecap="round" stroke-linejoin="round"/>
<path d="M476.206 184.294L463.648 172.416" stroke="black" stroke-width="0.5094" stroke-linecap="round" stroke-linejoin="round"/>
<path d="M463.648 172.416H454.74" stroke="black" stroke-width="0.5094" stroke-linecap="round" stroke-linejoin="round"/>
<path d="M525.894 202.313L524.428 213.449" stroke="black" stroke-width="0.5094" stroke-linecap="round" stroke-linejoin="round"/>
<path d="M524.428 213.449L525.894 212.335" stroke="black" stroke-width="0.5094" stroke-linecap="round" stroke-linejoin="round"/>
<path d="M525.894 212.335L527.36 213.449" stroke="black" stroke-width="0.5094" stroke-linecap="round" stroke-linejoin="round"/>
<path d="M527.36 213.449L525.894 202.313" stroke="black" stroke-width="0.5094" stroke-linecap="round" stroke-linejoin="round"/>
<path d="M525.894 202.313V217.903" stroke="black" stroke-width="0.5094" stroke-linecap="round" stroke-linejoin="round"/>
<path fill-rule="evenodd" clip-rule="evenodd" d="M527.36 213.449L525.894 202.313L524.428 213.449L525.894 212.335L527.36 213.449Z" fill="black"/>
<path d="M525.894 180.115L527.36 168.98" stroke="black" stroke-width="0.5094" stroke-linecap="round" stroke-linejoin="round"/>
<path d="M527.36 168.979L525.894 170.093" stroke="black" stroke-width="0.5094" stroke-linecap="round" stroke-linejoin="round"/>
<path d="M525.894 170.093L524.428 168.979" stroke="black" stroke-width="0.5094" stroke-linecap="round" stroke-linejoin="round"/>
<path d="M524.428 168.98L525.894 180.115" stroke="black" stroke-width="0.5094" stroke-linecap="round" stroke-linejoin="round"/>
<path d="M525.894 180.115V164.525" stroke="black" stroke-width="0.5094" stroke-linecap="round" stroke-linejoin="round"/>
<path fill-rule="evenodd" clip-rule="evenodd" d="M525.894 180.115L527.36 168.98L525.894 170.093L524.428 168.98L525.894 180.115Z" fill="black"/>
<path d="M525.894 202.313V180.115" stroke="black" stroke-width="0.5094" stroke-linecap="round" stroke-linejoin="round"/>
<path d="M488.352 202.313H530.348" stroke="black" stroke-width="0.5094" stroke-linecap="round" stroke-linejoin="round"/>
<path d="M488.352 180.115H530.348" stroke="black" stroke-width="0.5094" stroke-linecap="round" stroke-linejoin="round"/>
<path d="M318.902 479.118L308.212 475.672" stroke="black" stroke-width="0.5094" stroke-linecap="round" stroke-linejoin="round"/>
<path d="M308.212 475.672L309.846 474.824" stroke="black" stroke-width="0.5094" stroke-linecap="round" stroke-linejoin="round"/>
<path d="M309.846 474.824L309.468 473.023" stroke="black" stroke-width="0.5094" stroke-linecap="round" stroke-linejoin="round"/>
<path d="M309.468 473.023L318.901 479.118" stroke="black" stroke-width="0.5094" stroke-linecap="round" stroke-linejoin="round"/>
<path fill-rule="evenodd" clip-rule="evenodd" d="M318.902 479.118L309.468 473.023L309.846 474.824L308.212 475.672L318.902 479.118Z" fill="black"/>
<path d="M216.524 479.118L225.958 473.023" stroke="black" stroke-width="0.5094" stroke-linecap="round" stroke-linejoin="round"/>
<path d="M225.958 473.023L225.58 474.824" stroke="black" stroke-width="0.5094" stroke-linecap="round" stroke-linejoin="round"/>
<path d="M225.58 474.824L227.214 475.672" stroke="black" stroke-width="0.5094" stroke-linecap="round" stroke-linejoin="round"/>
<path d="M227.214 475.672L216.524 479.118" stroke="black" stroke-width="0.5094" stroke-linecap="round" stroke-linejoin="round"/>
<path fill-rule="evenodd" clip-rule="evenodd" d="M216.524 479.118L227.214 475.672L225.58 474.824L225.958 473.023L216.524 479.118Z" fill="black"/>
<path d="M318.901 479.118L312.061 475.781L305.005 472.931L297.767 470.579L290.382 468.738L282.887 467.416L275.319 466.621L267.713 466.355L260.107 466.621L252.538 467.416L245.043 468.738L237.659 470.579L230.421 472.931L216.524 479.118" stroke="black" stroke-width="0.5094" stroke-linecap="round" stroke-linejoin="round"/>
<path d="M299.462 515.678L320.992 475.185" stroke="black" stroke-width="0.5094" stroke-linecap="round" stroke-linejoin="round"/>
<path d="M235.964 515.678L214.434 475.185" stroke="black" stroke-width="0.5094" stroke-linecap="round" stroke-linejoin="round"/>
</g>
<defs>
<clipPath id="clip0_46_766">
<rect width="1051.17" height="768.145" fill="white" transform="matrix(1 0 0 -1 0 768.145)"/>
</clipPath>
</defs>
</svg>