<svg width="1052" height="769" viewBox="0 0 1052 769" fill="none" xmlns="http://www.w3.org/2000/svg">
<g clip-path="url(#clip0_131_2858)">
<path d="M1.59961 760.783H1052.77" stroke="#C9B8B8" stroke-width="0.5094" stroke-linejoin="round" stroke-dasharray="56.3 3.34 3.34 3.34"/>
<path fill-rule="evenodd" clip-rule="evenodd" d="M552.828 469.582L587.637 333.134L590.808 327.765L596.369 324.943L598.426 324.751H636.609L642.595 326.497L646.704 331.188L647.399 333.134L682.207 469.582L685.379 474.951L690.939 477.773L692.997 477.965H741.488L747.474 476.219L751.583 471.528L752.277 469.582L787.086 333.134L790.257 327.765L795.818 324.943L797.875 324.751H842.93L848.916 326.497L853.025 331.188L853.72 333.134L888.528 469.582L891.7 474.951L897.26 477.773L899.318 477.965H933.237L939.223 476.219L943.332 471.528L943.663 470.741L956.774 430.4L964.469 394.892L967.753 362.484L967.922 356.691L966.657 338.569L961.994 316.279L954.077 286.768L948.868 258.119L948.684 243.574L951.258 228.022L957.539 208.051L966.609 179.889L969.004 160.519L966.832 136.774L961.097 113.06L951.799 89.3738L948.684 82.9972H344.369V356.691H378.742L381.316 346.603L384.752 333.134L387.923 327.765L393.484 324.943L395.541 324.751H433.724L439.711 326.497L443.82 331.188L444.514 333.134L447.95 346.603L479.322 469.582L482.494 474.951L488.054 477.773L490.112 477.965H542.039L548.025 476.219L552.134 471.528L552.828 469.582Z" fill="#E1FF34" fill-opacity="0.2"/>
<path fill-rule="evenodd" clip-rule="evenodd" d="M151.275 768.145H666.52V408.093L650.834 346.603L647.663 341.234L642.102 338.412L640.044 338.221H594.99L589.003 339.967L584.894 344.657L584.2 346.603L552.828 469.582L549.392 483.051L546.22 488.42L540.659 491.242L538.602 491.434H493.547L487.561 489.688L483.452 484.998L482.757 483.051L479.321 469.582L447.949 346.603L444.778 341.234L439.217 338.412L437.16 338.221H392.105L386.118 339.967L382.009 344.657L381.315 346.603L346.507 483.051L343.335 488.42L337.775 491.242L335.717 491.434H290.662L284.676 489.688L280.567 484.998L279.873 483.051L245.064 346.603L241.893 341.234L236.332 338.412L234.275 338.221H189.22L183.233 339.967L179.124 344.657L178.43 346.603L159.957 419.019L149.226 478.346L147.414 511.498L147.428 512.146L149.457 531.63L155.048 555.8L164.029 588.914L168.48 615.723L169.477 653.734L166.914 691.901L160.791 730.225L151.275 768.145Z" fill="#034684" fill-opacity="0.2"/>
<path d="M159.957 419.019L178.43 346.603" stroke="#C9B8B8" stroke-width="1.698" stroke-linecap="round" stroke-linejoin="round"/>
<path d="M189.221 338.221H234.276" stroke="#C9B8B8" stroke-width="1.698" stroke-linecap="round" stroke-linejoin="round"/>
<path d="M279.873 483.052L245.064 346.603" stroke="#C9B8B8" stroke-width="1.698" stroke-linecap="round" stroke-linejoin="round"/>
<path d="M313.19 613.655L282.012 491.434" stroke="#C9B8B8" stroke-width="0.5094" stroke-linecap="round" stroke-linejoin="round"/>
<path d="M290.662 491.434H335.717" stroke="#C9B8B8" stroke-width="1.698" stroke-linecap="round" stroke-linejoin="round"/>
<path d="M387.449 322.555L414.632 216" stroke="#C9B8B8" stroke-width="0.5094" stroke-linecap="round" stroke-linejoin="round"/>
<path d="M381.314 346.603L384.75 333.134" stroke="#C9B8B8" stroke-width="1.698" stroke-linecap="round" stroke-linejoin="round"/>
<path d="M346.508 483.052L381.316 346.603" stroke="#C9B8B8" stroke-width="1.698" stroke-linecap="round" stroke-linejoin="round"/>
<path d="M313.189 613.655L344.368 491.434" stroke="#C9B8B8" stroke-width="0.5094" stroke-linecap="round" stroke-linejoin="round"/>
<path d="M392.105 338.221H437.16" stroke="#C9B8B8" stroke-width="1.698" stroke-linecap="round" stroke-linejoin="round"/>
<path d="M442.375 324.751L414.633 216" stroke="#C9B8B8" stroke-width="0.5094" stroke-linecap="round" stroke-linejoin="round"/>
<path d="M447.95 346.603L444.514 333.134" stroke="#C9B8B8" stroke-width="1.698" stroke-linecap="round" stroke-linejoin="round"/>
<path d="M479.321 469.582L447.949 346.603" stroke="#C9B8B8" stroke-width="1.698" stroke-linecap="round" stroke-linejoin="round"/>
<path d="M482.758 483.052L479.322 469.582" stroke="#C9B8B8" stroke-width="1.698" stroke-linecap="round" stroke-linejoin="round"/>
<path d="M516.075 613.655L484.896 491.434" stroke="#C9B8B8" stroke-width="0.5094" stroke-linecap="round" stroke-linejoin="round"/>
<path d="M493.547 491.434H538.602" stroke="#C9B8B8" stroke-width="1.698" stroke-linecap="round" stroke-linejoin="round"/>
<path d="M589.773 324.751L617.516 216" stroke="#C9B8B8" stroke-width="0.5094" stroke-linecap="round" stroke-linejoin="round"/>
<path d="M552.828 469.582L587.636 333.134" stroke="#C9B8B8" stroke-width="1.698" stroke-linecap="round" stroke-linejoin="round"/>
<path d="M549.393 483.052L552.829 469.582" stroke="#C9B8B8" stroke-width="1.698" stroke-linecap="round" stroke-linejoin="round"/>
<path d="M516.074 613.655L547.253 491.434" stroke="#C9B8B8" stroke-width="0.5094" stroke-linecap="round" stroke-linejoin="round"/>
<path d="M594.99 338.221H640.045" stroke="#C9B8B8" stroke-width="1.698" stroke-linecap="round" stroke-linejoin="round"/>
<path d="M645.26 324.751L617.518 216" stroke="#C9B8B8" stroke-width="0.5094" stroke-linecap="round" stroke-linejoin="round"/>
<path d="M682.207 469.582L647.398 333.134" stroke="#C9B8B8" stroke-width="1.698" stroke-linecap="round" stroke-linejoin="round"/>
<path d="M666.52 408.093V768.179" stroke="#C9B8B8" stroke-width="1.698" stroke-linecap="round" stroke-linejoin="round"/>
<path d="M395.541 324.751H433.724" stroke="#C9B8B8" stroke-width="1.698" stroke-linecap="round" stroke-linejoin="round"/>
<path d="M490.111 477.965H542.038" stroke="#C9B8B8" stroke-width="1.698" stroke-linecap="round" stroke-linejoin="round"/>
<path d="M598.426 324.751H636.609" stroke="#C9B8B8" stroke-width="1.698" stroke-linecap="round" stroke-linejoin="round"/>
<path d="M692.996 477.965H741.487" stroke="#C9B8B8" stroke-width="1.698" stroke-linecap="round" stroke-linejoin="round"/>
<path d="M752.277 469.582L787.085 333.134" stroke="#C9B8B8" stroke-width="1.698" stroke-linecap="round" stroke-linejoin="round"/>
<path d="M797.875 324.751H842.93" stroke="#C9B8B8" stroke-width="1.698" stroke-linecap="round" stroke-linejoin="round"/>
<path d="M888.527 469.582L853.719 333.134" stroke="#C9B8B8" stroke-width="1.698" stroke-linecap="round" stroke-linejoin="round"/>
<path d="M948.684 82.9973H344.369" stroke="#C9B8B8" stroke-width="1.698" stroke-linecap="round" stroke-linejoin="round"/>
<path d="M378.742 356.691H344.369" stroke="#C9B8B8" stroke-width="1.698" stroke-linecap="round" stroke-linejoin="round"/>
<path d="M344.369 356.691V82.9972" stroke="#C9B8B8" stroke-width="1.698" stroke-linecap="round" stroke-linejoin="round"/>
<path d="M943.662 470.741L945.853 464.79L947.963 458.831L949.989 452.864L951.926 446.89L953.77 440.908L955.52 434.92L957.17 428.925L958.717 422.925L960.158 416.92L961.489 410.91L962.706 404.896L963.806 398.879L964.785 392.858L965.64 386.834L966.366 380.808L966.962 374.78L967.421 368.752L967.742 362.722L967.921 356.692L967.841 350.761L967.42 344.821L966.7 338.871L965.723 332.915L964.53 326.952L963.165 320.985L961.667 315.014L960.08 309.042L958.446 303.068L956.805 297.095L955.201 291.124L953.674 285.155L952.267 279.192L951.021 273.233L949.979 267.282L949.183 261.34L948.673 255.407L948.493 249.484L948.683 243.574L949.111 239.178L949.79 234.785L950.69 230.397L951.778 226.013L953.022 221.633L954.392 217.256L955.853 212.882L957.376 208.511L958.927 204.142L960.475 199.775L961.988 195.41L963.434 191.047L964.781 186.685L965.998 182.323L967.052 177.962L967.911 173.602L968.544 169.241L968.919 164.88L969.003 160.519L968.883 156.431L968.658 152.344L968.327 148.258L967.89 144.173L967.348 140.088L966.701 136.005L965.948 131.922L965.09 127.84L964.126 123.759L963.056 119.679L961.881 115.6L960.601 111.522L959.215 107.444L957.723 103.367L956.126 99.2917L954.424 95.2167L952.616 91.1428L950.702 87.0697L948.683 82.9973" stroke="#C9B8B8" stroke-width="0.5094" stroke-linecap="round" stroke-linejoin="round"/>
<path d="M899.316 477.965H933.236" stroke="#C9B8B8" stroke-width="1.698" stroke-linecap="round" stroke-linejoin="round"/>
<path d="M159.957 419.019L158.927 423.912L157.9 428.809L156.883 433.71L155.882 438.615L154.905 443.522L153.957 448.43L153.047 453.341L152.18 458.252L151.363 463.163L150.603 468.073L149.907 472.983L149.28 477.891L148.731 482.796L148.266 487.699L147.891 492.598L147.613 497.493L147.439 502.383L147.375 507.268L147.429 512.146L147.693 517.626L148.21 523.096L148.951 528.558L149.889 534.013L150.995 539.462L152.242 544.906L153.601 550.347L155.045 555.785L156.545 561.221L158.073 566.656L159.602 572.092L161.102 577.53L162.548 582.97L163.909 588.413L165.159 593.862L166.269 599.316L167.211 604.777L167.958 610.246L168.48 615.723L168.985 623.683L169.332 631.65L169.523 639.624L169.557 647.605L169.435 655.592L169.156 663.587L168.721 671.589L168.128 679.597L167.38 687.612L166.474 695.634L165.412 703.663L164.193 711.699L162.818 719.742L161.285 727.792L159.597 735.849L157.751 743.912L155.749 751.983L153.591 760.06L151.275 768.145" stroke="#C9B8B8" stroke-width="0.5094" stroke-linecap="round" stroke-linejoin="round"/>
<path d="M245.065 346.603L244.847 345.857L244.577 345.128L244.257 344.42L243.888 343.736L243.473 343.079L243.013 342.453L242.51 341.86L241.967 341.304L241.387 340.787L240.772 340.312L240.125 339.881L239.45 339.496L238.749 339.159L238.027 338.872L237.287 338.635L236.531 338.451L235.765 338.321L234.992 338.244L234.275 338.221" stroke="#C9B8B8" stroke-width="1.698" stroke-linecap="round" stroke-linejoin="round"/>
<path d="M395.542 324.751L394.765 324.778L393.992 324.86L393.226 324.995L392.472 325.183L391.733 325.423L391.013 325.714L390.314 326.055L389.641 326.443L388.997 326.878L388.384 327.356L387.806 327.876L387.267 328.436L386.767 329.031L386.31 329.66L385.898 330.319L385.533 331.005L385.217 331.715L384.951 332.446L384.752 333.134" stroke="#C9B8B8" stroke-width="1.698" stroke-linecap="round" stroke-linejoin="round"/>
<path d="M444.512 333.134L444.294 332.388L444.024 331.659L443.704 330.951L443.336 330.267L442.92 329.61L442.46 328.983L441.957 328.391L441.414 327.835L440.834 327.318L440.219 326.842L439.572 326.411L438.897 326.026L438.196 325.69L437.474 325.402L436.734 325.166L435.979 324.982L435.212 324.851L434.439 324.774L433.723 324.751" stroke="#C9B8B8" stroke-width="1.698" stroke-linecap="round" stroke-linejoin="round"/>
<path d="M598.426 324.751L597.65 324.778L596.877 324.86L596.111 324.995L595.357 325.183L594.618 325.423L593.897 325.714L593.199 326.055L592.526 326.443L591.881 326.878L591.269 327.356L590.691 327.876L590.151 328.436L589.652 329.031L589.195 329.66L588.783 330.319L588.418 331.005L588.102 331.715L587.836 332.446L587.637 333.134" stroke="#C9B8B8" stroke-width="1.698" stroke-linecap="round" stroke-linejoin="round"/>
<path d="M647.399 333.134L647.181 332.388L646.911 331.659L646.591 330.951L646.222 330.267L645.807 329.61L645.347 328.983L644.844 328.391L644.301 327.835L643.721 327.318L643.105 326.842L642.459 326.411L641.784 326.026L641.083 325.69L640.361 325.402L639.62 325.166L638.865 324.982L638.099 324.851L637.326 324.774L636.609 324.751" stroke="#C9B8B8" stroke-width="1.698" stroke-linecap="round" stroke-linejoin="round"/>
<path d="M741.486 477.965L742.263 477.938L743.036 477.856L743.801 477.722L744.556 477.534L745.295 477.293L746.015 477.002L746.714 476.661L747.387 476.273L748.031 475.838L748.644 475.36L749.222 474.84L749.761 474.281L750.261 473.685L750.718 473.056L751.13 472.397L751.495 471.711L751.811 471.001L752.077 470.271L752.276 469.582" stroke="#C9B8B8" stroke-width="1.698" stroke-linecap="round" stroke-linejoin="round"/>
<path d="M682.207 469.582L682.425 470.328L682.695 471.057L683.015 471.765L683.384 472.45L683.799 473.106L684.259 473.733L684.762 474.325L685.305 474.882L685.886 475.398L686.501 475.874L687.147 476.305L687.822 476.69L688.523 477.027L689.245 477.314L689.986 477.55L690.741 477.734L691.507 477.865L692.28 477.942L692.997 477.965" stroke="#C9B8B8" stroke-width="1.698" stroke-linecap="round" stroke-linejoin="round"/>
<path d="M797.874 324.751L797.097 324.778L796.324 324.86L795.559 324.995L794.804 325.183L794.065 325.423L793.345 325.714L792.646 326.055L791.973 326.443L791.329 326.878L790.716 327.356L790.138 327.876L789.599 328.436L789.099 329.031L788.642 329.66L788.23 330.319L787.865 331.005L787.549 331.715L787.283 332.446L787.084 333.134" stroke="#C9B8B8" stroke-width="1.698" stroke-linecap="round" stroke-linejoin="round"/>
<path d="M853.719 333.134L853.501 332.388L853.231 331.659L852.911 330.951L852.543 330.267L852.127 329.61L851.667 328.983L851.164 328.391L850.621 327.835L850.041 327.318L849.426 326.842L848.779 326.411L848.104 326.026L847.404 325.69L846.681 325.402L845.941 325.166L845.186 324.982L844.42 324.851L843.646 324.774L842.93 324.751" stroke="#C9B8B8" stroke-width="1.698" stroke-linecap="round" stroke-linejoin="round"/>
<path d="M888.527 469.582L888.746 470.328L889.015 471.057L889.335 471.765L889.704 472.45L890.119 473.106L890.58 473.733L891.082 474.325L891.625 474.882L892.206 475.398L892.821 475.874L893.468 476.305L894.143 476.69L894.843 477.027L895.565 477.314L896.306 477.55L897.061 477.734L897.827 477.865L898.601 477.942L899.317 477.965" stroke="#C9B8B8" stroke-width="1.698" stroke-linecap="round" stroke-linejoin="round"/>
<path d="M933.236 477.965L934.013 477.938L934.786 477.856L935.552 477.722L936.306 477.534L937.045 477.293L937.765 477.002L938.464 476.661L939.137 476.273L939.781 475.838L940.394 475.36L940.972 474.84L941.511 474.281L942.011 473.685L942.468 473.056L942.88 472.397L943.245 471.711L943.561 471.001L943.662 470.741" stroke="#C9B8B8" stroke-width="1.698" stroke-linecap="round" stroke-linejoin="round"/>
<path d="M189.219 338.221L188.443 338.248L187.67 338.329L186.904 338.464L186.15 338.652L185.411 338.892L184.69 339.183L183.992 339.524L183.319 339.913L182.674 340.347L182.062 340.826L181.484 341.346L180.944 341.905L180.445 342.5L179.988 343.129L179.576 343.788L179.211 344.474L178.895 345.184L178.629 345.915L178.43 346.603" stroke="#C9B8B8" stroke-width="1.698" stroke-linecap="round" stroke-linejoin="round"/>
<path d="M279.873 483.051L280.091 483.797L280.361 484.526L280.681 485.234L281.05 485.919L281.465 486.576L281.925 487.202L282.428 487.795L282.971 488.351L283.552 488.868L284.167 489.343L284.813 489.774L285.488 490.159L286.189 490.496L286.911 490.783L287.652 491.019L288.407 491.203L289.173 491.334L289.946 491.411L290.663 491.434" stroke="#C9B8B8" stroke-width="1.698" stroke-linecap="round" stroke-linejoin="round"/>
<path d="M335.717 491.434L336.494 491.407L337.267 491.326L338.032 491.191L338.786 491.003L339.525 490.763L340.246 490.471L340.944 490.131L341.618 489.742L342.262 489.307L342.874 488.829L343.452 488.309L343.992 487.75L344.492 487.154L344.948 486.526L345.36 485.866L345.725 485.18L346.041 484.47L346.307 483.74L346.507 483.051" stroke="#C9B8B8" stroke-width="1.698" stroke-linecap="round" stroke-linejoin="round"/>
<path d="M482.758 483.051L482.976 483.797L483.246 484.526L483.566 485.234L483.934 485.919L484.35 486.576L484.81 487.202L485.313 487.795L485.856 488.351L486.436 488.868L487.051 489.343L487.698 489.774L488.373 490.159L489.074 490.496L489.796 490.783L490.536 491.019L491.292 491.203L492.058 491.334L492.831 491.411L493.547 491.434" stroke="#C9B8B8" stroke-width="1.698" stroke-linecap="round" stroke-linejoin="round"/>
<path d="M538.602 491.434L539.378 491.407L540.151 491.326L540.917 491.191L541.671 491.003L542.41 490.763L543.131 490.471L543.829 490.131L544.502 489.742L545.147 489.307L545.759 488.829L546.337 488.309L546.877 487.75L547.376 487.154L547.833 486.526L548.245 485.866L548.61 485.18L548.926 484.47L549.192 483.74L549.391 483.051" stroke="#C9B8B8" stroke-width="1.698" stroke-linecap="round" stroke-linejoin="round"/>
<path d="M392.104 338.221L391.327 338.248L390.554 338.329L389.789 338.464L389.035 338.652L388.296 338.892L387.575 339.183L386.876 339.524L386.203 339.913L385.559 340.347L384.947 340.826L384.369 341.346L383.829 341.905L383.329 342.5L382.873 343.129L382.461 343.788L382.096 344.474L381.78 345.184L381.514 345.915L381.314 346.603" stroke="#C9B8B8" stroke-width="1.698" stroke-linecap="round" stroke-linejoin="round"/>
<path d="M447.95 346.603L447.732 345.857L447.462 345.128L447.142 344.42L446.773 343.736L446.358 343.079L445.898 342.453L445.395 341.86L444.852 341.304L444.271 340.787L443.656 340.312L443.01 339.881L442.334 339.496L441.634 339.159L440.912 338.872L440.171 338.635L439.416 338.451L438.65 338.321L437.877 338.244L437.16 338.221" stroke="#C9B8B8" stroke-width="1.698" stroke-linecap="round" stroke-linejoin="round"/>
<path d="M479.322 469.582L479.541 470.328L479.81 471.057L480.13 471.765L480.499 472.45L480.914 473.106L481.375 473.733L481.877 474.325L482.42 474.882L483.001 475.398L483.616 475.874L484.263 476.305L484.938 476.69L485.638 477.027L486.36 477.314L487.101 477.55L487.856 477.734L488.622 477.865L489.396 477.942L490.112 477.965" stroke="#C9B8B8" stroke-width="1.698" stroke-linecap="round" stroke-linejoin="round"/>
<path d="M542.039 477.965L542.816 477.938L543.589 477.856L544.354 477.722L545.108 477.534L545.848 477.293L546.568 477.002L547.267 476.661L547.94 476.273L548.584 475.838L549.197 475.36L549.774 474.84L550.314 474.281L550.814 473.685L551.271 473.056L551.682 472.397L552.047 471.711L552.363 471.001L552.629 470.271L552.829 469.582" stroke="#C9B8B8" stroke-width="1.698" stroke-linecap="round" stroke-linejoin="round"/>
<path d="M594.989 338.221L594.212 338.248L593.439 338.329L592.674 338.464L591.92 338.652L591.18 338.892L590.46 339.183L589.761 339.524L589.088 339.913L588.444 340.347L587.831 340.826L587.254 341.346L586.714 341.905L586.214 342.5L585.757 343.129L585.346 343.788L584.981 344.474L584.665 345.184L584.399 345.915L584.199 346.603" stroke="#C9B8B8" stroke-width="1.698" stroke-linecap="round" stroke-linejoin="round"/>
<path d="M650.835 346.603L650.616 345.857L650.347 345.128L650.027 344.42L649.658 343.736L649.243 343.079L648.782 342.453L648.279 341.86L647.737 341.304L647.156 340.787L646.541 340.312L645.894 339.881L645.219 339.496L644.519 339.159L643.797 338.872L643.056 338.635L642.301 338.451L641.535 338.321L640.761 338.244L640.045 338.221" stroke="#C9B8B8" stroke-width="1.698" stroke-linecap="round" stroke-linejoin="round"/>
<path d="M822.191 408.093H983.22" stroke="#C9B8B8" stroke-width="0.5094" stroke-linecap="round" stroke-linejoin="round"/>
<path d="M720.707 408.093H800.835" stroke="#C9B8B8" stroke-width="0.5094" stroke-linecap="round" stroke-linejoin="round"/>
<path d="M137.5 408.093H694.74" stroke="#C9B8B8" stroke-width="0.5094" stroke-linecap="round" stroke-linejoin="round"/>
<path d="M619.95 206.466L608.783 205.267" stroke="#C9B8B8" stroke-width="0.5094" stroke-linecap="round" stroke-linejoin="round"/>
<path d="M608.783 205.267L610.211 204.105" stroke="#C9B8B8" stroke-width="0.5094" stroke-linecap="round" stroke-linejoin="round"/>
<path d="M610.209 204.105L609.473 202.418" stroke="#C9B8B8" stroke-width="0.5094" stroke-linecap="round" stroke-linejoin="round"/>
<path d="M609.473 202.418L619.949 206.466" stroke="#C9B8B8" stroke-width="0.5094" stroke-linecap="round" stroke-linejoin="round"/>
<path fill-rule="evenodd" clip-rule="evenodd" d="M619.95 206.466L609.474 202.418L610.211 204.105L608.783 205.267L619.95 206.466Z" fill="#C9B8B8"/>
<path d="M412.201 206.466L422.677 202.418" stroke="#C9B8B8" stroke-width="0.5094" stroke-linecap="round" stroke-linejoin="round"/>
<path d="M422.676 202.418L421.939 204.105" stroke="#C9B8B8" stroke-width="0.5094" stroke-linecap="round" stroke-linejoin="round"/>
<path d="M421.939 204.105L423.367 205.267" stroke="#C9B8B8" stroke-width="0.5094" stroke-linecap="round" stroke-linejoin="round"/>
<path d="M423.368 205.267L412.201 206.466" stroke="#C9B8B8" stroke-width="0.5094" stroke-linecap="round" stroke-linejoin="round"/>
<path fill-rule="evenodd" clip-rule="evenodd" d="M423.368 205.267L421.941 204.105L422.677 202.418L412.201 206.466L423.368 205.267Z" fill="#C9B8B8"/>
<path d="M619.95 206.466L591.293 200.212L562.27 195.972L533.021 193.767L503.69 193.608L474.419 195.495L445.351 199.42L416.628 205.362L412.201 206.466" stroke="#C9B8B8" stroke-width="0.5094" stroke-linecap="round" stroke-linejoin="round"/>
<path d="M617.518 216L621.051 202.15" stroke="#C9B8B8" stroke-width="0.5094" stroke-linecap="round" stroke-linejoin="round"/>
<path d="M414.633 216L411.1 202.15" stroke="#C9B8B8" stroke-width="0.5094" stroke-linecap="round" stroke-linejoin="round"/>
<path d="M463.637 324.751L465.103 313.616" stroke="#C9B8B8" stroke-width="0.5094" stroke-linecap="round" stroke-linejoin="round"/>
<path d="M465.103 313.616L463.637 314.729" stroke="#C9B8B8" stroke-width="0.5094" stroke-linecap="round" stroke-linejoin="round"/>
<path d="M463.636 314.729L462.17 313.616" stroke="#C9B8B8" stroke-width="0.5094" stroke-linecap="round" stroke-linejoin="round"/>
<path d="M462.17 313.616L463.636 324.751" stroke="#C9B8B8" stroke-width="0.5094" stroke-linecap="round" stroke-linejoin="round"/>
<path d="M463.637 324.751V309.162" stroke="#C9B8B8" stroke-width="0.5094" stroke-linecap="round" stroke-linejoin="round"/>
<path fill-rule="evenodd" clip-rule="evenodd" d="M463.636 324.751L465.102 313.616L463.636 314.73L462.17 313.616L463.636 324.751Z" fill="#C9B8B8"/>
<path d="M463.636 338.22L462.17 349.356" stroke="#C9B8B8" stroke-width="0.5094" stroke-linecap="round" stroke-linejoin="round"/>
<path d="M462.17 349.356L463.636 348.242" stroke="#C9B8B8" stroke-width="0.5094" stroke-linecap="round" stroke-linejoin="round"/>
<path d="M463.637 348.242L465.103 349.356" stroke="#C9B8B8" stroke-width="0.5094" stroke-linecap="round" stroke-linejoin="round"/>
<path d="M465.103 349.356L463.637 338.22" stroke="#C9B8B8" stroke-width="0.5094" stroke-linecap="round" stroke-linejoin="round"/>
<path d="M463.637 338.22V353.81" stroke="#C9B8B8" stroke-width="0.5094" stroke-linecap="round" stroke-linejoin="round"/>
<path fill-rule="evenodd" clip-rule="evenodd" d="M465.102 349.356L463.636 338.22L462.17 349.356L463.636 348.242L465.102 349.356Z" fill="#C9B8B8"/>
<path d="M463.637 324.751V338.22" stroke="#C9B8B8" stroke-width="0.5094" stroke-linecap="round" stroke-linejoin="round"/>
<path d="M463.637 324.751V313.572" stroke="#C9B8B8" stroke-width="0.5094" stroke-linecap="round" stroke-linejoin="round"/>
<path d="M442.375 324.751H468.09" stroke="#C9B8B8" stroke-width="0.5094" stroke-linecap="round" stroke-linejoin="round"/>
<path d="M414.633 338.22H468.09" stroke="#C9B8B8" stroke-width="0.5094" stroke-linecap="round" stroke-linejoin="round"/>
<path d="M516.075 491.434L514.609 502.569" stroke="#C9B8B8" stroke-width="0.5094" stroke-linecap="round" stroke-linejoin="round"/>
<path d="M514.609 502.569L516.075 501.456" stroke="#C9B8B8" stroke-width="0.5094" stroke-linecap="round" stroke-linejoin="round"/>
<path d="M516.076 501.456L517.542 502.569" stroke="#C9B8B8" stroke-width="0.5094" stroke-linecap="round" stroke-linejoin="round"/>
<path d="M517.542 502.569L516.076 491.434" stroke="#C9B8B8" stroke-width="0.5094" stroke-linecap="round" stroke-linejoin="round"/>
<path d="M516.076 491.434V507.023" stroke="#C9B8B8" stroke-width="0.5094" stroke-linecap="round" stroke-linejoin="round"/>
<path fill-rule="evenodd" clip-rule="evenodd" d="M517.541 502.569L516.075 491.434L514.609 502.569L516.075 501.456L517.541 502.569Z" fill="#C9B8B8"/>
<path d="M516.076 477.965L517.542 466.83" stroke="#C9B8B8" stroke-width="0.5094" stroke-linecap="round" stroke-linejoin="round"/>
<path d="M517.542 466.83L516.076 467.943" stroke="#C9B8B8" stroke-width="0.5094" stroke-linecap="round" stroke-linejoin="round"/>
<path d="M516.075 467.943L514.609 466.83" stroke="#C9B8B8" stroke-width="0.5094" stroke-linecap="round" stroke-linejoin="round"/>
<path d="M514.609 466.83L516.075 477.965" stroke="#C9B8B8" stroke-width="0.5094" stroke-linecap="round" stroke-linejoin="round"/>
<path d="M516.076 477.965V462.376" stroke="#C9B8B8" stroke-width="0.5094" stroke-linecap="round" stroke-linejoin="round"/>
<path fill-rule="evenodd" clip-rule="evenodd" d="M516.075 477.965L517.541 466.83L516.075 467.943L514.609 466.83L516.075 477.965Z" fill="#C9B8B8"/>
<path d="M516.076 491.434V477.965" stroke="#C9B8B8" stroke-width="0.5094" stroke-linecap="round" stroke-linejoin="round"/>
<path d="M516.076 477.965V466.785" stroke="#C9B8B8" stroke-width="0.5094" stroke-linecap="round" stroke-linejoin="round"/>
<path d="M313.189 624.953L324.325 623.487" stroke="#C9B8B8" stroke-width="0.5094" stroke-linecap="round" stroke-linejoin="round"/>
<path d="M324.324 623.487L323.211 624.953" stroke="#C9B8B8" stroke-width="0.5094" stroke-linecap="round" stroke-linejoin="round"/>
<path d="M323.211 624.953L324.324 626.419" stroke="#C9B8B8" stroke-width="0.5094" stroke-linecap="round" stroke-linejoin="round"/>
<path d="M324.325 626.419L313.189 624.953" stroke="#C9B8B8" stroke-width="0.5094" stroke-linecap="round" stroke-linejoin="round"/>
<path fill-rule="evenodd" clip-rule="evenodd" d="M323.211 624.953L324.325 623.487L313.189 624.953L324.325 626.419L323.211 624.953Z" fill="#C9B8B8"/>
<path d="M516.075 624.953L504.939 626.419" stroke="#C9B8B8" stroke-width="0.5094" stroke-linecap="round" stroke-linejoin="round"/>
<path d="M504.939 626.419L506.053 624.953" stroke="#C9B8B8" stroke-width="0.5094" stroke-linecap="round" stroke-linejoin="round"/>
<path d="M506.053 624.953L504.939 623.487" stroke="#C9B8B8" stroke-width="0.5094" stroke-linecap="round" stroke-linejoin="round"/>
<path d="M504.939 623.487L516.075 624.953" stroke="#C9B8B8" stroke-width="0.5094" stroke-linecap="round" stroke-linejoin="round"/>
<path fill-rule="evenodd" clip-rule="evenodd" d="M516.075 624.953L504.939 623.487L506.053 624.953L504.939 626.419L516.075 624.953Z" fill="#C9B8B8"/>
<path d="M313.189 624.953H516.074" stroke="#C9B8B8" stroke-width="0.5094" stroke-linecap="round" stroke-linejoin="round"/>
<path d="M313.189 613.655V629.407" stroke="#C9B8B8" stroke-width="0.5094" stroke-linecap="round" stroke-linejoin="round"/>
<path d="M516.074 613.655V629.407" stroke="#C9B8B8" stroke-width="0.5094" stroke-linecap="round" stroke-linejoin="round"/>
<path d="M791.718 326.607L786.785 316.517" stroke="#C9B8B8" stroke-width="0.5094" stroke-linecap="round" stroke-linejoin="round"/>
<path d="M786.786 316.517L786.18 318.255" stroke="#C9B8B8" stroke-width="0.5094" stroke-linecap="round" stroke-linejoin="round"/>
<path d="M786.179 318.255L784.342 318.137" stroke="#C9B8B8" stroke-width="0.5094" stroke-linecap="round" stroke-linejoin="round"/>
<path d="M784.342 318.138L791.718 326.607" stroke="#C9B8B8" stroke-width="0.5094" stroke-linecap="round" stroke-linejoin="round"/>
<path d="M791.718 326.607L783.102 313.615" stroke="#C9B8B8" stroke-width="0.5094" stroke-linecap="round" stroke-linejoin="round"/>
<path fill-rule="evenodd" clip-rule="evenodd" d="M791.718 326.607L786.785 316.517L786.179 318.255L784.342 318.138L791.718 326.607Z" fill="#C9B8B8"/>
<path d="M797.874 335.886L791.719 326.607" stroke="#C9B8B8" stroke-width="0.5094" stroke-linecap="round" stroke-linejoin="round"/>
<path d="M791.719 326.607L780.119 309.118" stroke="#C9B8B8" stroke-width="0.5094" stroke-linecap="round" stroke-linejoin="round"/>
<path d="M749.023 475.026L755.482 484.214" stroke="#C9B8B8" stroke-width="0.5094" stroke-linecap="round" stroke-linejoin="round"/>
<path d="M755.482 484.214L755.808 482.402" stroke="#C9B8B8" stroke-width="0.5094" stroke-linecap="round" stroke-linejoin="round"/>
<path d="M755.809 482.402L757.641 482.23" stroke="#C9B8B8" stroke-width="0.5094" stroke-linecap="round" stroke-linejoin="round"/>
<path d="M757.64 482.23L749.023 475.026" stroke="#C9B8B8" stroke-width="0.5094" stroke-linecap="round" stroke-linejoin="round"/>
<path d="M749.023 475.026L759.576 486.5" stroke="#C9B8B8" stroke-width="0.5094" stroke-linecap="round" stroke-linejoin="round"/>
<path fill-rule="evenodd" clip-rule="evenodd" d="M757.64 482.23L749.023 475.026L755.482 484.214L755.807 482.402L757.64 482.23Z" fill="#C9B8B8"/>
<path d="M741.486 466.83L749.024 475.026" stroke="#C9B8B8" stroke-width="0.5094" stroke-linecap="round" stroke-linejoin="round"/>
<path d="M749.023 475.026L769.68 497.487" stroke="#C9B8B8" stroke-width="0.5094" stroke-linecap="round" stroke-linejoin="round"/>
<path d="M820.402 477.965L818.936 466.83" stroke="#C9B8B8" stroke-width="0.5094" stroke-linecap="round" stroke-linejoin="round"/>
<path d="M818.936 466.83L820.402 467.943" stroke="#C9B8B8" stroke-width="0.5094" stroke-linecap="round" stroke-linejoin="round"/>
<path d="M820.402 467.943L821.868 466.83" stroke="#C9B8B8" stroke-width="0.5094" stroke-linecap="round" stroke-linejoin="round"/>
<path d="M821.868 466.83L820.402 477.965" stroke="#C9B8B8" stroke-width="0.5094" stroke-linecap="round" stroke-linejoin="round"/>
<path fill-rule="evenodd" clip-rule="evenodd" d="M820.402 477.965L821.868 466.83L820.402 467.943L818.936 466.83L820.402 477.965Z" fill="#C9B8B8"/>
<path d="M820.402 324.751L821.868 335.886" stroke="#C9B8B8" stroke-width="0.5094" stroke-linecap="round" stroke-linejoin="round"/>
<path d="M821.868 335.886L820.402 334.773" stroke="#C9B8B8" stroke-width="0.5094" stroke-linecap="round" stroke-linejoin="round"/>
<path d="M820.402 334.773L818.936 335.886" stroke="#C9B8B8" stroke-width="0.5094" stroke-linecap="round" stroke-linejoin="round"/>
<path d="M818.936 335.886L820.402 324.751" stroke="#C9B8B8" stroke-width="0.5094" stroke-linecap="round" stroke-linejoin="round"/>
<path fill-rule="evenodd" clip-rule="evenodd" d="M821.868 335.886L820.402 324.751L818.936 335.886L820.402 334.773L821.868 335.886Z" fill="#C9B8B8"/>
<path d="M820.402 477.965V324.751" stroke="#C9B8B8" stroke-width="0.5094" stroke-linecap="round" stroke-linejoin="round"/>
<path d="M916.276 477.965H815.947" stroke="#C9B8B8" stroke-width="0.5094" stroke-linecap="round" stroke-linejoin="round"/>
<path d="M717.242 338.22L718.708 349.356" stroke="#C9B8B8" stroke-width="0.5094" stroke-linecap="round" stroke-linejoin="round"/>
<path d="M718.708 349.356L717.242 348.242" stroke="#C9B8B8" stroke-width="0.5094" stroke-linecap="round" stroke-linejoin="round"/>
<path d="M717.241 348.242L715.775 349.356" stroke="#C9B8B8" stroke-width="0.5094" stroke-linecap="round" stroke-linejoin="round"/>
<path d="M715.775 349.356L717.241 338.22" stroke="#C9B8B8" stroke-width="0.5094" stroke-linecap="round" stroke-linejoin="round"/>
<path fill-rule="evenodd" clip-rule="evenodd" d="M718.707 349.356L717.241 338.22L715.775 349.356L717.241 348.242L718.707 349.356Z" fill="#C9B8B8"/>
<path d="M717.241 477.965L715.775 466.83" stroke="#C9B8B8" stroke-width="0.5094" stroke-linecap="round" stroke-linejoin="round"/>
<path d="M715.775 466.83L717.241 467.943" stroke="#C9B8B8" stroke-width="0.5094" stroke-linecap="round" stroke-linejoin="round"/>
<path d="M717.242 467.943L718.708 466.83" stroke="#C9B8B8" stroke-width="0.5094" stroke-linecap="round" stroke-linejoin="round"/>
<path d="M718.708 466.83L717.242 477.965" stroke="#C9B8B8" stroke-width="0.5094" stroke-linecap="round" stroke-linejoin="round"/>
<path fill-rule="evenodd" clip-rule="evenodd" d="M717.241 477.965L718.707 466.83L717.241 467.943L715.775 466.83L717.241 477.965Z" fill="#C9B8B8"/>
<path d="M717.242 338.221V477.965" stroke="#C9B8B8" stroke-width="0.5094" stroke-linecap="round" stroke-linejoin="round"/>
<path d="M640.045 338.22H721.696" stroke="#C9B8B8" stroke-width="0.5094" stroke-linecap="round" stroke-linejoin="round"/>
<path d="M1033.7 324.751L1035.17 335.886" stroke="#C9B8B8" stroke-width="0.5094" stroke-linecap="round" stroke-linejoin="round"/>
<path d="M1035.17 335.886L1033.7 334.773" stroke="#C9B8B8" stroke-width="0.5094" stroke-linecap="round" stroke-linejoin="round"/>
<path d="M1033.7 334.773L1032.23 335.886" stroke="#C9B8B8" stroke-width="0.5094" stroke-linecap="round" stroke-linejoin="round"/>
<path d="M1032.23 335.886L1033.7 324.751" stroke="#C9B8B8" stroke-width="0.5094" stroke-linecap="round" stroke-linejoin="round"/>
<path fill-rule="evenodd" clip-rule="evenodd" d="M1035.16 335.886L1033.7 324.751L1032.23 335.886L1033.7 334.773L1035.16 335.886Z" fill="#C9B8B8"/>
<path d="M1033.7 324.751V760.783" stroke="#C9B8B8" stroke-width="0.5094" stroke-linecap="round" stroke-linejoin="round"/>
<path d="M842.93 324.751H1038.15" stroke="#C9B8B8" stroke-width="0.5094" stroke-linecap="round" stroke-linejoin="round"/>
<path d="M972.84 408.093L974.306 419.228" stroke="#C9B8B8" stroke-width="0.5094" stroke-linecap="round" stroke-linejoin="round"/>
<path d="M974.306 419.228L972.84 418.115" stroke="#C9B8B8" stroke-width="0.5094" stroke-linecap="round" stroke-linejoin="round"/>
<path d="M972.839 418.115L971.373 419.228" stroke="#C9B8B8" stroke-width="0.5094" stroke-linecap="round" stroke-linejoin="round"/>
<path d="M971.373 419.228L972.839 408.093" stroke="#C9B8B8" stroke-width="0.5094" stroke-linecap="round" stroke-linejoin="round"/>
<path fill-rule="evenodd" clip-rule="evenodd" d="M974.305 419.228L972.839 408.093L971.373 419.228L972.839 418.115L974.305 419.228Z" fill="#C9B8B8"/>
<path d="M972.84 408.093V760.783" stroke="#C9B8B8" stroke-width="0.5094" stroke-linecap="round" stroke-linejoin="round"/>
<path d="M983.221 408.093H968.385" stroke="#C9B8B8" stroke-width="0.5094" stroke-linecap="round" stroke-linejoin="round"/>
<path d="M916.488 477.965L917.954 489.1" stroke="#C9B8B8" stroke-width="0.5094" stroke-linecap="round" stroke-linejoin="round"/>
<path d="M917.954 489.1L916.488 487.987" stroke="#C9B8B8" stroke-width="0.5094" stroke-linecap="round" stroke-linejoin="round"/>
<path d="M916.487 487.987L915.021 489.1" stroke="#C9B8B8" stroke-width="0.5094" stroke-linecap="round" stroke-linejoin="round"/>
<path d="M915.021 489.1L916.487 477.965" stroke="#C9B8B8" stroke-width="0.5094" stroke-linecap="round" stroke-linejoin="round"/>
<path fill-rule="evenodd" clip-rule="evenodd" d="M917.953 489.1L916.487 477.965L915.021 489.1L916.487 487.987L917.953 489.1Z" fill="#C9B8B8"/>
<path d="M916.488 477.965V760.783" stroke="#C9B8B8" stroke-width="0.5094" stroke-linecap="round" stroke-linejoin="round"/>
<path d="M933.236 477.965H912.033" stroke="#C9B8B8" stroke-width="0.5094" stroke-linecap="round" stroke-linejoin="round"/>
</g>
<defs>
<clipPath id="clip0_131_2858">
<rect width="1051.17" height="768.145" fill="white" transform="matrix(1 0 0 -1 0 768.145)"/>
</clipPath>
</defs>
</svg>
